<?xml version="1.0" ?>
<!-- Uploaded to: SVG Repo, www.svgrepo.com, Generator: SVG Repo Mixer Tools -->
<svg width="800px" height="800px" viewBox="0 0 512 512" id="Layer_1" version="1.1" xml:space="preserve" xmlns="http://www.w3.org/2000/svg" xmlns:xlink="http://www.w3.org/1999/xlink">
<style type="text/css">
	.st0{fill:#69C9C9;}
	.st1{fill:#E6E6E6;}
	.st2{fill:#4D5152;}
</style>
<circle class="st0" cx="175.1" cy="175.1" r="117.2"/>
<polygon class="st1" points="413.7,399.6 427.9,385.4 475.8,433.4 433.4,475.8 392.5,434.9 420.8,406.7 "/>
<g>
<path class="st2" d="M322.3,175.1c0,3.1-0.1,6.3-0.3,9.4l20,1.3c0.2-3.5,0.3-7.1,0.3-10.6c0-3.5-0.1-7.1-0.3-10.6l-20,1.3   C322.2,168.8,322.3,172,322.3,175.1z"/>
<path class="st2" d="M379.9,309.2l-14.1,14.1l-53.2-53.2c12.9-18.6,22.1-39.9,26.6-63.2l-19.6-3.8c-13.3,69-74.1,119.1-144.5,119.1   c-81.2,0-147.2-66-147.2-147.2c0-81.2,66-147.2,147.2-147.2c70.4,0,131.2,50.1,144.5,119.1l19.6-3.8   C324.1,64.8,255.1,7.9,175.1,7.9C82.9,7.9,7.9,82.9,7.9,175.1c0,92.2,75,167.2,167.2,167.2c35,0,67.9-10.9,95.1-29.7l53.2,53.2   l-14.1,14.1l40.9,40.9l14.1-14.1l-26.7-26.7l42.4-42.4l95.9,95.9l-42.4,42.4l-40.9-40.9l28.3-28.3l-14.1-14.1l-42.4,42.4l69.1,69.1   l70.7-70.7L379.9,309.2z M337.5,351.7L286,300.1c2.5-2.3,5-4.6,7.4-7c2.3-2.3,4.6-4.7,6.7-7.1l51.5,51.5L337.5,351.7z"/>
<path class="st2" d="M175.1,302.3c35.1,0,66.9-14.3,89.9-37.3c23-23,37.3-54.8,37.3-89.9c0-70.1-57.1-127.2-127.2-127.2   c-57.6,0-108.2,38.9-123,94.6l19.3,5.1c12.4-47,55.1-79.7,103.6-79.7c59.1,0,107.2,48.1,107.2,107.2c0,59.1-48.1,107.2-107.2,107.2   c-48.6,0-91.2-32.8-103.6-79.7l-19.3,5.1C66.9,263.4,117.5,302.3,175.1,302.3z"/>
<path class="st2" d="M48.4,164.2c-0.3,3.6-0.5,7.2-0.5,10.8c0,3.6,0.2,7.3,0.5,10.8l19.9-1.7c-0.3-3-0.4-6.1-0.4-9.2   c0-3.1,0.1-6.1,0.4-9.2L48.4,164.2z"/>
<rect class="st2" height="20" width="135.5" x="107.4" y="165.1"/>
</g>
</svg>